<mxfile host="Electron" modified="2023-05-01T15:49:13.283Z" agent="Mozilla/5.0 (Windows NT 10.0; Win64; x64) AppleWebKit/537.36 (KHTML, like Gecko) draw.io/21.2.1 Chrome/112.0.5615.87 Electron/24.1.2 Safari/537.36" etag="7vDHjG-rzSUW9Mn9Pmfq" version="21.2.1" type="device">
  <diagram name="Page-1" id="KhbPLumuyQmlPBJ5qKXA">
    <mxGraphModel dx="732" dy="787" grid="1" gridSize="10" guides="1" tooltips="1" connect="1" arrows="1" fold="1" page="1" pageScale="1" pageWidth="3300" pageHeight="4681" math="0" shadow="0">
      <root>
        <mxCell id="0" />
        <mxCell id="1" parent="0" />
        <mxCell id="i9S4w5KRCm9vi_By6kCF-1" value="" style="shape=image;verticalLabelPosition=bottom;labelBackgroundColor=default;verticalAlign=top;aspect=fixed;imageAspect=0;image=data:image/png,iVBORw0KGgoAAAANSUhEUgAAAyAAAAMgCAAAAAD+G1m0AAAH90lEQVR4nO3VoRHAMBAEsTj99+zgkKX/QKrgyM6dh1Xu9AB+3ukBsJlAIAgEgkAgCASCQCAIBIJAIAgEgkAgCASCQCAIBIJAIAgEgkAgCASCQCAIBIJAIAgEgkAgCASCQCAIBIJAIAgEgkAgCASCQCAIBIJAIAgEgkAgCASCQCAIBIJAIAgEgkAgCASCQCAIBIJAIAgEgkAgCASCQCAIBIJAIAgEgkAgCASCQCAIBIJAIAgEgkAgCASCQCAIBIJAIAgEgkAgCASCQCAIBIJAIAgEgkAgCASCQCAIBIJAIAgEgkAgCASCQCAIBIJAIAgEgkAgCASCQCAIBIJAIAgEgkAgCASCQCAIBIJAIAgEgkAgCASCQCAIBIJAIAgEgkAgCASCQCAIBIJAIAgEgkAgCASCQCAIBIJAIAgEgkAgCASCQCAIBIJAIAgEgkAgCASCQCAIBIJAIAgEgkAgCASCQCAIBIJAIAgEgkAgCASCQCAIBIJAIAgEgkAgCASCQCAIBIJAIAgEgkAgCASCQCAIBIJAIAgEgkAgCASCQCAIBIJAIAgEgkAgCASCQCAIBIJAIAgEgkAgCASCQCAIBIJAIAgEgkAgCASCQCAIBIJAIAgEgkAgCASCQCAIBIJAIAgEgkAgCASCQCAIBIJAIAgEgkAgCASCQCAIBIJAIAgEgkAgCASCQCAIBIJAIAgEgkAgCASCQCAIBIJAIAgEgkAgCASCQCAIBIJAIAgEgkAgCASCQCAIBIJAIAgEgkAgCASCQCAIBIJAIAgEgkAgCASCQCAIBIJAIAgEgkAgCASCQCAIBIJAIAgEgkAgCASCQCAIBIJAIAgEgkAgCASCQCAIBIJAIAgEgkAgCASCQCAIBIJAIAgEgkAgCASCQCAIBIJAIAgEgkAgCASCQCAIBIJAIAgEgkAgCASCQCAIBIJAIAgEgkAgCASCQCAIBIJAIAgEgkAgCASCQCAIBIJAIAgEgkAgCASCQCAIBIJAIAgEgkAgCASCQCAIBIJAIAgEgkAgCASCQCAIBIJAIAgEgkAgCASCQCAIBIJAIAgEgkAgCASCQCAIBIJAIAgEgkAgCASCQCAIBIJAIAgEgkAgCASCQCAIBIJAIAgEgkAgCASCQCAIBIJAIAgEgkAgCASCQCAIBIJAIAgEgkAgCASCQCAIBIJAIAgEgkAgCASCQCAIBIJAIAgEgkAgCASCQCAIBIJAIAgEgkAgCASCQCAIBIJAIAgEgkAgCASCQCAIBIJAIAgEgkAgCASCQCAIBIJAIAgEgkAgCASCQCAIBIJAIAgEgkAgCASCQCAIBIJAIAgEgkAgCASCQCAIBIJAIAgEgkAgCASCQCAIBIJAIAgEgkAgCASCQCAIBIJAIAgEwrnTC2AxDwJBIBAEAkEgEAQCQSAQBAJBIBAEAkEgEAQCQSAQBAJBIBAEAkEgEAQCQSAQBAJBIBAEAkEgEAQCQSAQBAJBIBAEAkEgEAQCQSAQBAJBIBAEAkEgEAQCQSAQBAJBIBAEAkEgEAQCQSAQBAJBIBAEAkEgEAQCQSAQBAJBIBAEAkEgEAQCQSAQBAJBIBAEAkEgEAQCQSAQBAJBIBAEAkEgEAQCQSAQBAJBIBAEAkEgEAQCQSAQBAJBIBAEAkEgEAQCQSAQBAJBIBAEAkEgEAQCQSAQBAJBIBAEAkEgEAQCQSAQBAJBIBAEAkEgEAQCQSAQBAJBIBAEAkEgEAQCQSAQBAJBIBAEAkEgEAQCQSAQBAJBIBAEAkEgEAQCQSAQBAJBIBAEAkEgEAQCQSAQBAJBIBAEAkEgEAQCQSAQBAJBIBAEAkEgEAQCQSAQBAJBIBAEAkEgEAQCQSAQBAJBIBAEAkEgEAQCQSAQBAJBIBAEAkEgEAQCQSAQBAJBIBAEAkEgEAQCQSAQBAJBIBAEAkEgEAQCQSAQBAJBIBAEAkEgEAQCQSAQBAJBIBAEAkEgEAQCQSAQBAJBIBAEAkEgEAQCQSAQBAJBIBAEAkEgEAQCQSAQBAJBIBAEAkEgEAQCQSAQBAJBIBAEAkEgEAQCQSAQBAJBIBAEAkEgEAQCQSAQBAJBIBAEAkEgEAQCQSAQBAJBIBAEAkEgEAQCQSAQBAJBIBAEAkEgEAQCQSAQBAJBIBAEAkEgEAQCQSAQBAJBIBAEAkEgEAQCQSAQBAJBIBAEAkEgEAQCQSAQBAJBIBAEAkEgEAQCQSAQBAJBIBAEAkEgEAQCQSAQBAJBIBAEAkEgEAQCQSAQBAJBIBAEAkEgEAQCQSAQBAJBIBAEAkEgEAQCQSAQBAJBIBAEAkEgEAQCQSAQBAJBIBAEAkEgEAQCQSAQBAJBIBAEAkEgEAQCQSAQBAJBIBAEAkEgEAQCQSAQBAJBIBAEAkEgEAQCQSAQBAJBIBAEAkEgEAQCQSAQBAJBIBAEAkEgEAQCQSAQBAJBIBAEAkEgEAQCQSAQBAJBIBAEAkEgEAQCQSAQBAJBIBAEAkEgEAQCQSAQBAJBIBAEAkEgEAQCQSAQBAJBIBAEAkEgEAQCQSAQBAJBIBAEAkEgEAQCQSAQBAJBIBAEAkEgEAQCQSAQBAJBIBAEAkEgEAQCQSAQBAJBIBAEAkEgEAQCQSAQBAJBIBAEAkEgEAQCQSAQBAJBIBAEAkEgEAQCQSAQBAJBIBAEAkEgEAQCQSAQBAJBIBAEAkEgEAQCQSAQBAJBIBAEAkEgEAQCQSAQBAJBIBAEAuEDQkIIPZHMoRcAAAAASUVORK5CYII=;imageBorder=default;" vertex="1" parent="1">
          <mxGeometry x="200" y="300" width="120" height="120" as="geometry" />
        </mxCell>
        <mxCell id="i9S4w5KRCm9vi_By6kCF-2" value="" style="shape=image;verticalLabelPosition=bottom;labelBackgroundColor=default;verticalAlign=top;aspect=fixed;imageAspect=0;image=data:image/png,iVBORw0KGgoAAAANSUhEUgAAAyAAAAMgCAAAAAD+G1m0AAAH90lEQVR4nO3VoRHAMBADwTj99+xggxx9g90KRG609gP8eacHwM0EAkEgEAQCQSAQBAJBIBAEAkEgEAQCQSAQBAJBIBAEAkEgEAQCQSAQBAJBIBAEAkEgEAQCQSAQBAJBIBAEAkEgEAQCQSAQBAJBIBAEAkEgEAQCQSAQBAJBIBAEAkEgEAQCQSAQBAJBIBAEAkEgEAQCQSAQBAJBIBAEAkEgEAQCQSAQBAJBIBAEAkEgEAQCQSAQBAJBIBAEAkEgEAQCQSAQBAJBIBAEAkEgEAQCQSAQBAJBIBAEAkEgEAQCQSAQBAJBIBAEAkEgEAQCQSAQBAJBIBAEAkEgEAQCQSAQBAJBIBAEAkEgEAQCQSAQBAJBIBAEAkEgEAQCQSAQBAJBIBAEAkEgEAQCQSAQBAJBIBAEAkEgEAQCQSAQBAJBIBAEAkEgEAQCQSAQBAJBIBAEAkEgEAQCQSAQBAJBIBAEAkEgEAQCQSAQBAJBIBAEAkEgEAQCQSAQBAJBIBAEAkEgEAQCQSAQBAJBIBAEAkEgEAQCQSAQBAJBIBAEAkEgEAQCQSAQBAJBIBAEAkEgEAQCQSAQBAJBIBAEAkEgEAQCQSAQBAJBIBAEAkEgEAQCQSAQBAJBIBAEAkEgEAQCQSAQBAJBIBAEAkEgEAQCQSAQBAJBIBAEAkEgEAQCQSAQBAJBIBAEAkEgEAQCQSAQBAJBIBAEAkEgEAQCQSAQBAJBIBAEAkEgEAQCQSAQBAJBIBAEAkEgEAQCQSAQBAJBIBAEAkEgEAQCQSAQBAJBIBAEAkEgEAQCQSAQBAJBIBAEAkEgEAQCQSAQBAJBIBAEAkEgEAQCQSAQBAJBIBAEAkEgEAQCQSAQBAJBIBAEAkEgEAQCQSAQBAJBIBAEAkEgEAQCQSAQBAJBIBAEAkEgEAQCQSAQBAJBIBAEAkEgEAQCQSAQBAJBIBAEAkEgEAQCQSAQBAJBIBAEAkEgEAQCQSAQBAJBIBAEAkEgEAQCQSAQBAJBIBAEAkEgEAQCQSAQBAJBIBAEAkEgEAQCQSAQBAJBIBAEAkEgEAQCQSAQBAJBIBAEAkEgEAQCQSAQBAJBIBAEAkEgEAQCQSAQBAJBIBAEAkEgEAQCQSAQBAJBIBAEAkEgEAQCQSAQBAJBIBAEAkEgEAQCQSAQBAJBIBAEAkEgEAQCQSAQBAJBIBAEAkEgEAQCQSAQBAJBIBAEAkEgEAQCQSAQBAJBIBAEAkEgEAQCQSAQBAJBIBAEAkEgEAQCQSAQBAJBIBAEAkEgEAQCQSAQBAJBIBAEAkEgEAQCQSAQBAJBIBAEAkEgEAQCQSAQBAJBIBAEAkEgEAQCQSAQBAJBIBAEAkEgEAQCQSAQBAJBIBAEAkEgENb0AE57egAHDwJBIBAEAkEgEAQCQSAQBAJBIBAEAkEgEAQCQSAQBAJBIBAEAkEgEAQCQSAQBAJBIBAEAkEgEAQCQSAQBAJBIBAEAkEgEAQCQSAQBAJBIBAEAkEgEAQCQSAQBAJBIBAEAkEgEAQCQSAQBAJBIBAEAkEgEAQCQSAQBAJBIBAEAkEgEAQCQSAQBAJBIBAEAkEgEAQCQSAQBAJBIBAEAkEgEAQCQSAQBAJBIBAEAkEgEAQCQSAQBAJBIBAEAkEgEAQCQSAQBAJBIBAEAkEgEAQCQSAQBAJBIBAEAkEgEAQCQSAQBAJBIBAEAkEgEAQCQSAQBAJBIBAEAkEgEAQCQSAQBAJBIBAEAkEgEAQCQSAQBAJBIBAEAkEgEAQCQSAQBAJBIBAEAkEgEAQCQSAQBAJBIBAEAkEgEAQCQSAQBAJBIBAEAkEgEAQCQSAQBAJBIBAEAkEgEAQCQSAQBAJBIBAEAkEgEAQCQSAQBAJBIBAEAkEgEAQCQSAQBAJBIBAEAkEgEAQCQSAQBAJBIBAEAkEgEAQCQSAQBAJBIBAEAkEgEAQCQSAQBAJBIBAEAkEgEAQCQSAQBAJBIBAEAkEgEAQCQSAQBAJBIBAEAkEgEAQCQSAQBAJBIBAEAkEgEAQCQSAQBAJBIBAEAkEgEAQCQSAQBAJBIBAEAkEgEAQCQSAQBAJBIBAEAkEgEAQCQSAQBAJBIBAEAkEgEAQCQSAQBAJBIBAEAkEgEAQCQSAQBAJBIBAEAkEgEAQCQSAQBAJBIBAEAkEgEAQCQSAQBAJBIBAEAkEgEAQCQSAQBAJBIBAEAkEgEAQCQSAQBAJBIBAEAkEgEAQCQSAQBAJBIBAEAkEgEAQCQSAQBAJBIBAEAkEgEAQCQSAQBAJBIBAEAkEgEAQCQSAQBAJBIBAEAkEgEAQCQSAQBAJBIBAEAkEgEAQCQSAQBAJBIBAEAkEgEAQCQSAQBAJBIBAEAkEgEAQCQSAQBAJBIBAEAkEgEAQCQSAQBAJBIBAEAkEgEAQCQSAQBAJBIBAEAkEgEAQCQSAQBAJBIBAEAkEgEAQCQSAQBAJBIBAEAkEgEAQCQSAQBAJBIBAEAkEgEAQCQSAQBAJBIBAEAkEgEAQCQSAQBAJBIBAEAkEgEAQCQSAQBAJBIBAEAkEgEAQCQSAQBAJBIBAEAkEgEAQCQSAQBAJBIBAEAkEgEAQCQSAQBAJBIBAEAkEgEAQCQSAQBAJBIBAEAkEgEAQCQSAQBAJBIBAEAkEgEAQCQSAQBAJBIBAEAkEgEAQCQSAQBAJBIBAEAkEgEAQCQSAQBAJBIBAEAkEgEAQCQSAQBAJBIBAEAuEDQkIIPepCwpYAAAAASUVORK5CYII=;imageBorder=default;" vertex="1" parent="1">
          <mxGeometry x="340" y="300" width="120" height="120" as="geometry" />
        </mxCell>
        <mxCell id="i9S4w5KRCm9vi_By6kCF-3" value="" style="shape=image;verticalLabelPosition=bottom;labelBackgroundColor=default;verticalAlign=top;aspect=fixed;imageAspect=0;image=data:image/png,iVBORw0KGgoAAAANSUhEUgAAAyAAAAMgCAAAAAD+G1m0AAAH90lEQVR4nO3VoRHAMBAEsXz679nBIUv9QKrgyM7Nedhkbg/g5709ADYTCASBQBAIBIFAEAgEgUAQCASBQBAIBIFAEAgEgUAQCASBQBAIBIFAEAgEgUAQCASBQBAIBIFAEAgEgUAQCASBQBAIBIFAEAgEgUAQCASBQBAIBIFAEAgEgUAQCASBQBAIBIFAEAgEgUAQCASBQBAIBIFAEAgEgUAQCASBQBAIBIFAEAgEgUAQCASBQBAIBIFAEAgEgUAQCASBQBAIBIFAEAgEgUAQCASBQBAIBIFAEAgEgUAQCASBQBAIBIFAEAgEgUAQCASBQBAIBIFAEAgEgUAQCASBQBAIBIFAEAgEgUAQCASBQBAIBIFAEAgEgUAQCASBQBAIBIFAEAgEgUAQCASBQBAIBIFAEAgEgUAQCASBQBAIBIFAEAgEgUAQCASBQBAIBIFAEAgEgUAQCASBQBAIBIFAEAgEgUAQCASBQBAIBIFAEAgEgUAQCASBQBAIBIFAEAgEgUAQCASBQBAIBIFAEAgEgUAQCASBQBAIBIFAEAgEgUAQCASBQBAIBIFAEAgEgUAQCASBQBAIBIFAEAgEgUAQCASBQBAIBIFAEAgEgUAQCASBQBAIBIFAEAgEgUAQCASBQBAIBIFAEAgEgUAQCASBQBAIBIFAEAgEgUAQCASBQBAIBIFAEAgEgUAQCASBQBAIBIFAEAgEgUAQCASBQBAIBIFAEAgEgUAQCASBQBAIBIFAEAgEgUAQCASBQBAIBIFAEAgEgUAQCASBQBAIBIFAEAgEgUAQCASBQBAIBIFAEAgEgUAQCASBQBAIBIFAEAgEgUAQCASBQBAIBIFAEAgEgUAQCASBQBAIBIFAEAgEgUAQCASBQBAIBIFAEAgEgUAQCASBQBAIBIFAEAgEgUAQCASBQBAIBIFAEAgEgUAQCASBQBAIBIFAEAgEgUAQCASBQBAIBIFAEAgEgUAQCASBQBAIBIFAEAgEgUAQCASBQBAIBIFAEAgEgUAQCASBQBAIBIFAEAgEgUAQCASBQBAIBIFAEAgEgUAQCASBQBAIBIFAEAgEgUAQCASBQBAIBIFAEAgEgUAQCASBQBAIBIFAEAgEgUAQCASBQBAIBIFAEAgEgUAQCASBQBAIBIFAEAgEgUAQCASBQBAIBIFAEAgEgUAQCASBQBAIBIFAEAgEgUAQCASBQBAIBIFAEAgEgUAQCASBQBAIBIFAEAgEgUAQCASBQBAIBIFAEAgEgUAQCASBQBAIBIFAEAgEgUAQCASBQBAIBIFAEAgEgUAQCASBQBAIBIFAEAgEgUAQCASBQBAIBIFAEAgEgUAQCASBQBAIBIFAEAgEgUAQCASBQBAIBIFAEAgEgUAQCASBQJhzewEs5kEgCASCQCAIBIJAIAgEgkAgCASCQCAIBIJAIAgEgkAgCASCQCAIBIJAIAgEgkAgCASCQCAIBIJAIAgEgkAgCASCQCAIBIJAIAgEgkAgCASCQCAIBIJAIAgEgkAgCASCQCAIBIJAIAgEgkAgCASCQCAIBIJAIAgEgkAgCASCQCAIBIJAIAgEgkAgCASCQCAIBIJAIAgEgkAgCASCQCAIBIJAIAgEgkAgCASCQCAIBIJAIAgEgkAgCASCQCAIBIJAIAgEgkAgCASCQCAIBIJAIAgEgkAgCASCQCAIBIJAIAgEgkAgCASCQCAIBIJAIAgEgkAgCASCQCAIBIJAIAgEgkAgCASCQCAIBIJAIAgEgkAgCASCQCAIBIJAIAgEgkAgCASCQCAIBIJAIAgEgkAgCASCQCAIBIJAIAgEgkAgCASCQCAIBIJAIAgEgkAgCASCQCAIBIJAIAgEgkAgCASCQCAIBIJAIAgEgkAgCASCQCAIBIJAIAgEgkAgCASCQCAIBIJAIAgEgkAgCASCQCAIBIJAIAgEgkAgCASCQCAIBIJAIAgEgkAgCASCQCAIBIJAIAgEgkAgCASCQCAIBIJAIAgEgkAgCASCQCAIBIJAIAgEgkAgCASCQCAIBIJAIAgEgkAgCASCQCAIBIJAIAgEgkAgCASCQCAIBIJAIAgEgkAgCASCQCAIBIJAIAgEgkAgCASCQCAIBIJAIAgEgkAgCASCQCAIBIJAIAgEgkAgCASCQCAIBIJAIAgEgkAgCASCQCAIBIJAIAgEgkAgCASCQCAIBIJAIAgEgkAgCASCQCAIBIJAIAgEgkAgCASCQCAIBIJAIAgEgkAgCASCQCAIBIJAIAgEgkAgCASCQCAIBIJAIAgEgkAgCASCQCAIBIJAIAgEgkAgCASCQCAIBIJAIAgEgkAgCASCQCAIBIJAIAgEgkAgCASCQCAIBIJAIAgEgkAgCASCQCAIBIJAIAgEgkAgCASCQCAIBIJAIAgEgkAgCASCQCAIBIJAIAgEgkAgCASCQCAIBIJAIAgEgkAgCASCQCAIBIJAIAgEgkAgCASCQCAIBIJAIAgEgkAgCASCQCAIBIJAIAgEgkAgCASCQCAIBIJAIAgEgkAgCASCQCAIBIJAIAgEgkAgCASCQCAIBIJAIAgEgkAgCASCQCAIBIJAIAgEgkAgCASCQCAIBIJAIAgEgkAgCASCQCAIBIJAIAgEgkAgCASCQCAIBIJAIAgEgkAgCASCQCAIBIJAIAgEgkAgCASCQCAIBIJAIAgEgkAgCASCQCAIBIJAIAgEgkAgCASCQCAIBIJAIAgEgkAgCASCQCB8luYIPnubRLkAAAAASUVORK5CYII=;imageBorder=default;" vertex="1" parent="1">
          <mxGeometry x="480" y="300" width="120" height="120" as="geometry" />
        </mxCell>
        <mxCell id="i9S4w5KRCm9vi_By6kCF-4" value="" style="shape=image;verticalLabelPosition=bottom;labelBackgroundColor=default;verticalAlign=top;aspect=fixed;imageAspect=0;image=data:image/png,iVBORw0KGgoAAAANSUhEUgAAAyAAAAMgCAAAAAD+G1m0AAAH+ElEQVR4nO3VsRGAMBADQczQf8sQO/ClT7BbgZIbrfcCTu7pAfBnAoEgEAgCgSAQCAKBIBAIAoEgEAgCgSAQCAKBIBAIAoEgEAgCgSAQCAKBIBAIAoEgEAgCgSAQCAKBIBAIAoEgEAgCgSAQCAKBIBAIAoEgEAgCgSAQCAKBIBAIAoEgEAgCgSAQCAKBIBAIAoEgEAgCgSAQCAKBIBAIAoEgEAgCgSAQCAKBIBAIAoEgEAgCgSAQCAKBIBAIAoEgEAgCgSAQCAKBIBAIAoEgEAgCgSAQCAKBIBAIAoEgEAgCgSAQCAKBIBAIAoEgEAgCgSAQCAKBIBAIAoEgEAgCgSAQCAKBIBAIAoEgEAgCgSAQCAKBIBAIAoEgEAgCgSAQCAKBIBAIAoEgEAgCgSAQCAKBIBAIAoEgEAgCgSAQCAKBIBAIAoEgEAgCgSAQCAKBIBAIAoEgEAgCgSAQCAKBIBAIAoEgEAgCgSAQCAKBIBAIAoEgEAgCgSAQCAKBIBAIAoEgEAgCgSAQCAKBIBAIAoEgEAgCgSAQCAKBIBAIAoEgEAgCgSAQCAKBIBAIAoEgEAgCgSAQCAKBIBAIAoEgEAgCgSAQCAKBIBAIAoEgEAgCgSAQCAKBIBAIAoEgEAgCgSAQCAKBIBAIAoEgEAgCgSAQCAKBIBAIAoEgEAgCgSAQCAKBIBAIAoEgEAgCgSAQCAKBIBAIAoEgEAgCgSAQCAKBIBAIAoEgEAgCgSAQCAKBIBAIAoEgEAgCgSAQCAKBIBAIAoEgEAgCgSAQCAKBIBAIAoEgEAgCgSAQCAKBIBAIAoEgEAgCgSAQCAKBIBAIAoEgEAgCgSAQCAKBIBAIAoEgEAgCgSAQCAKBIBAIAoEgEAgCgSAQCAKBIBAIAoEgEAgCgSAQCAKBIBAIAoEgEAgCgSAQCAKBIBAIAoEgEAgCgSAQCAKBIBAIAoEgEAgCgSAQCAKBIBAIAoEgEAgCgSAQCAKBIBAIAoEgEAgCgSAQCAKBIBAIAoEgEAgCgSAQCAKBIBAIAoEgEAgCgSAQCAKBIBAIAoEgEAgCgSAQCAKBIBAIAoEgEAgCgSAQCAKBIBAIAoEgEAgCgSAQCAKBIBAIAoEgEAgCgSAQCAKBIBAIAoEgEAgCgSAQCAKBIBAIAoEgEAgCgSAQCAKBIBAIAoEgEAgCgSAQCAKBIBAIAoEgEAgCgSAQCAKBIBAIAoEgEAgCgSAQCAKBIBAIAoEgEAgCgSAQCAKBIBAIAoEgEAgCgSAQCAKBIBAIAoEgEAgCgSAQCAKBIBAIAoEgEAgCgSAQCAKBIBAIAoEgEAgCgSAQCAKBIBAIAoEgEAgCgSAQCAKBIBAIAoEgEAgCgSAQCAKBIBAIAoEgEAjP9AB2a3oAGw8CQSAQBAJBIBAEAkEgEAQCQSAQBAJBIBAEAkEgEAQCQSAQBAJBIBAEAkEgEAQCQSAQBAJBIBAEAkEgEAQCQSAQBAJBIBAEAkEgEAQCQSAQBAJBIBAEAkEgEAQCQSAQBAJBIBAEAkEgEAQCQSAQBAJBIBAEAkEgEAQCQSAQBAJBIBAEAkEgEAQCQSAQBAJBIBAEAkEgEAQCQSAQBAJBIBAEAkEgEAQCQSAQBAJBIBAEAkEgEAQCQSAQBAJBIBAEAkEgEAQCQSAQBAJBIBAEAkEgEAQCQSAQBAJBIBAEAkEgEAQCQSAQBAJBIBAEAkEgEAQCQSAQBAJBIBAEAkEgEAQCQSAQBAJBIBAEAkEgEAQCQSAQBAJBIBAEAkEgEAQCQSAQBAJBIBAEAkEgEAQCQSAQBAJBIBAEAkEgEAQCQSAQBAJBIBAEAkEgEAQCQSAQBAJBIBAEAkEgEAQCQSAQBAJBIBAEAkEgEAQCQSAQBAJBIBAEAkEgEAQCQSAQBAJBIBAEAkEgEAQCQSAQBAJBIBAEAkEgEAQCQSAQBAJBIBAEAkEgEAQCQSAQBAJBIBAEAkEgEAQCQSAQBAJBIBAEAkEgEAQCQSAQBAJBIBAEAkEgEAQCQSAQBAJBIBAEAkEgEAQCQSAQBAJBIBAEAkEgEAQCQSAQBAJBIBAEAkEgEAQCQSAQBAJBIBAEAkEgEAQCQSAQBAJBIBAEAkEgEAQCQSAQBAJBIBAEAkEgEAQCQSAQBAJBIBAEAkEgEAQCQSAQBAJBIBAEAkEgEAQCQSAQBAJBIBAEAkEgEAQCQSAQBAJBIBAEAkEgEAQCQSAQBAJBIBAEAkEgEAQCQSAQBAJBIBAEAkEgEAQCQSAQBAJBIBAEAkEgEAQCQSAQBAJBIBAEAkEgEAQCQSAQBAJBIBAEAkEgEAQCQSAQBAJBIBAEAkEgEAQCQSAQBAJBIBAEAkEgEAQCQSAQBAJBIBAEAkEgEAQCQSAQBAJBIBAEAkEgEAQCQSAQBAJBIBAEAkEgEAQCQSAQBAJBIBAEAkEgEAQCQSAQBAJBIBAEAkEgEAQCQSAQBAJBIBAEAkEgEAQCQSAQBAJBIBAEAkEgEAQCQSAQBAJBIBAEAkEgEAQCQSAQBAJBIBAEAkEgEAQCQSAQBAJBIBAEAkEgEAQCQSAQBAJBIBAEAkEgEAQCQSAQBAJBIBAEAkEgEAQCQSAQBAJBIBAEAkEgEAQCQSAQBAJBIBAEAkEgEAQCQSAQBAJBIBAEAkEgEAQCQSAQBAJBIBAEAkEgEAQCQSAQBAJBIBAEAkEgEAQCQSAQBAJBIBAEAkEgEAQCQSAQBALhA2oaB0IA0qt1AAAAAElFTkSuQmCC;imageBorder=default;" vertex="1" parent="1">
          <mxGeometry x="620" y="300" width="120" height="120" as="geometry" />
        </mxCell>
        <mxCell id="i9S4w5KRCm9vi_By6kCF-5" value="" style="shape=image;verticalLabelPosition=bottom;labelBackgroundColor=default;verticalAlign=top;aspect=fixed;imageAspect=0;image=data:image/png,iVBORw0KGgoAAAANSUhEUgAAAyAAAAMgCAAAAAD+G1m0AAAFQElEQVR4nO3TMQ0AIADAMMC/Z3CwF0JaBXs2BgAAAAAAAAAAAAAAAAAAAAAAAAAAAAAAAAAAAAAAAAAAAAAAAAAAAAAAAAAAAAAAAAAAAAAAAAAAAAAAAAAAAAAAAAAAAAAAAAAAAAAAAAAAAAAAAAAAAAAAAAAAAAAAAAAAAAAAAAAAAAAAAAAAAAAAAAAAAAAAAAAAAAAAAAAAAAAAAAAAAAAAAAAAAAAAAAAAAAAAAAAAAAAAAAAAAAAAAAAAAAAAAAAAAAAAAAAAAAAAAAAAAAAAAAAAAAAAAAAAAAAAAAAAAAAAAAAAAAAAAAAAAAAAAAAAAAAAAAAAAAAAAAAAAAAAAAAAAAAAAAAAAAAAAAAAAAAAAAAAAAAAAAAAAAAAAAAAAAAAAAAAAAAAAAAAAAAAAAAAAAAAAAAAAAAAAAAAAAAAAAAAAAAAAAAAAAA/m/t2ATxs3Q6AlxkEgkEgGASCQSAYBIJBIBgEgkEgGASCQSAYBIJBIBgEgkEgGASCQSAYBIJBIBgEgkEgGASCQSAYBIJBIBgEgkEgGASCQSAYBIJBIBgEgkEgGASCQSAYBIJBIBgEgkEgGASCQSAYBIJBIBgEgkEgGASCQSAYBIJBIBgEgkEgGASCQSAYBIJBIBgEgkEgGASCQSAYBIJBIBgEgkEgGASCQSAYBIJBIBgEgkEgGASCQSAYBIJBIBgEgkEgGASCQSAYBIJBIBgEgkEgGASCQSAYBIJBIBgEgkEgGASCQSAYBIJBIBgEgkEgGASCQSAYBIJBIBgEgkEgGASCQSAYBIJBIBgEgkEgGASCQSAYBIJBIBgEgkEgGASCQSAYBIJBIBgEgkEgGASCQSAYBIJBIBgEgkEgGASCQSAYBIJBIBgEgkEgGASCQSAYBIJBIBgEgkEgGASCQSAYBIJBIBgEgkEgGASCQSAYBIJBIBgEgkEgGASCQSAYBIJBIBgEgkEgGASCQSAYBIJBIBgEgkEgGASCQSAYBIJBIBgEgkEgGASCQSAYBIJBIBgEgkEgGASCQSAYBIJBIBgEgkEgGASCQSAYBIJBIBgEgkEgGASCQSAYBIJBIBgEgkEgGASCQSAYBIJBIBgEgkEgGASCQSAYBIJBIBgEgkEgGASCQSAYBIJBIBgEgkEgGASCQSAYBIJBIBgEgkEgGASCQSAYBIJBIBgEgkEgGASCQSAYBIJBIBgEgkEgGASCQSAYBIJBIBgEgkEgGASCQSAYBIJBIBgEgkEgGASCQSAYBIJBIBgEgkEgGASCQSAYBIJBIBgEgkEgGASCQSAYBIJBIBgEgkEgGASCQSAYBIJBIBgEgkEgGASCQSAYBIJBIBgEgkEgGASCQSAYBIJBIBgEgkEgGASCQSAYBIJBIBgEgkEgGASCQSAYBIJBIBgEgkEgGASCQSAYBIJBIBgEgkEgGASCQSAYBIJBIBgEgkEgGASCQSAYBIJBIBgEgkEgGASCQSAYBIJBIBgEgkEgGASCQSAYBIJBIBgEgkEgGASCQSAYBIJBIBgEgkEgGASCQSAYBIJBIBgEgkEgGASCQSAYBIJBIBgEgkEgGASCQSAYBIJBIBgEgkEgGASCQSAYBIJBIBgEgkEgGASCQSAYBIJBIBgEgkEgGASCQSAYBIJBIBgEgkEgGASCQSAYBIJBIBgEgkEgGASCQSAYBIJBIBgEgkEgGASCQSAYBIJBIBgEgkEgGASCQSAYBIJBIBgEgkEgGASCQSAYBIJBIBgEgkEgGASCQSAYBIJBIBgEgkEgGASCQSAYBIJBIBgEgkEgHL/FBB+1aBv+AAAAAElFTkSuQmCC;imageBorder=default;" vertex="1" parent="1">
          <mxGeometry x="200" y="160" width="120" height="120" as="geometry" />
        </mxCell>
        <mxCell id="i9S4w5KRCm9vi_By6kCF-6" value="" style="shape=image;verticalLabelPosition=bottom;labelBackgroundColor=default;verticalAlign=top;aspect=fixed;imageAspect=0;image=data:image/png,iVBORw0KGgoAAAANSUhEUgAAAyAAAAMgCAAAAAD+G1m0AAAH8UlEQVR4nO3ToQEAIACAMPX/nzVbqBq2CyjMwVf26wAu63UA/MwgEAwCwSAQDALBIBAMAsEgEAwCwSAQDALBIBAMAsEgEAwCwSAQDALBIBAMAsEgEAwCwSAQDALBIBAMAsEgEAwCwSAQDALBIBAMAsEgEAwCwSAQDALBIBAMAsEgEAwCwSAQDALBIBAMAsEgEAwCwSAQDALBIBAMAsEgEAwCwSAQDALBIBAMAsEgEAwCwSAQDALBIBAMAsEgEAwCwSAQDALBIBAMAsEgEAwCwSAQDALBIBAMAsEgEAwCwSAQDALBIBAMAsEgEAwCwSAQDALBIBAMAsEgEAwCwSAQDALBIBAMAsEgEAwCwSAQDALBIBAMAsEgEAwCwSAQDALBIBAMAsEgEAwCwSAQDALBIBAMAsEgEAwCwSAQDALBIBAMAsEgEAwCwSAQDALBIBAMAsEgEAwCwSAQDALBIBAMAsEgEAwCwSAQDALBIBAMAsEgEAwCwSAQDALBIBAMAsEgEAwCwSAQDALBIBAMAsEgEAwCwSAQDALBIBAMAsEgEAwCwSAQDALBIBAMAsEgEAwCwSAQDALBIBAMAsEgEAwCwSAQDALBIBAMAsEgEAwCwSAQDALBIBAMAsEgEAwCwSAQDALBIBAMAsEgEAwCwSAQDALBIBAMAsEgEAwCwSAQDALBIBAMAsEgEAwCwSAQDALBIBAMAsEgEAwCwSAQDALBIBAMAsEgEAwCwSAQDALBIBAMAsEgEAwCwSAQDALBIBAMAsEgEAwCwSAQDALBIBAMAsEgEAwCwSAQDALBIBAMAsEgEAwCwSAQDALBIBAMAsEgEAwCwSAQDALBIBAMAsEgEAwCwSAQDALBIBAMAsEgEAwCwSAQDALBIBAMAsEgEAwCwSAQDALBIBAMAsEgEAwCwSAQDALBIBAMAsEgEAwCwSAQDALBIBAMAsEgEAwCwSAQDALBIBAMAsEgEAwCwSAQDALBIBAMAsEgEAwCwSAQDALBIBAMAsEgEAwCwSAQDALBIBAMAsEgEAwCwSAQDALBIBAMAsEgEAwCwSAQDALBIBAMAsEgEAwCwSAQDALBIBAMAsEgEAwCwSAQDALBIBAMAsEgEAwCwSAQDALBIBAMAsEgEAwCwSAQDALBIBAMAsEgEAwCwSAQDALBIBAMAsEgEAwCwSAQDALBIBAMAsEgEAwCwSAQDALBIBAMAsEgEAwCwSAQDALBIBAMAsEgEAwCwSAQDALBIBAMAsEgEAwCwSAQDALBIBAMAsEgEAwCwSAQDALBIBAMAsEgEAwCwSAQDALBIBAMAsEgEAwCwSAQDALBIBAMAsEgEAwCwSAQDALBIBAMAsEgEAwCwSAQDALBIBAMAsEgEAwCwSAQDALBIBAMAsEgEAwCwSAQDALBIBAMAsEgEAwCwSAQDALBIBAMAsEgEAwCwSAQDALBIBAMAsEgEAwCwSAQDALBIBAMAsEgEAwCwSAQDALBIBAMAsEgEAwCwSAQDALBIBAMAsEgEAwCwSAQDALBIBAMAsEgEAwCwSAQDALBIBAMAsEgEAwCwSAQDALBIBAMAsEgEAwCwSAQDALBIBAMAsEgEAwCwSAQDALBIBAMAsEgEAwCwSAQDALBIBAMAsEgEAwCwSAQDALBIBAMAsEgEAwCwSAQDALBIBAMAsEgEAwCwSAQDALBIBAMAsEgEAwCwSAQDALBIBAMAsEgEAwCwSAQDALBIBAMAsEgEAwCwSAQDALBIBAMAsEgEAwCwSAQDALBIBAMAsEgEAwCwSAQDALBIBAMAsEgEAwCwSAQDALBIBAMAsEgEAwCwSAQDALBIBAMAsEgEAwCwSAQDALBIBAMAsEgEAwCwSAQDALBIBAMAsEgEAwCwSAQDALBIBAMAsEgEAwCwSAQDALBIBAMAsEgEAwCwSAQDALBIBAMAsEgEAwCwSAQDALBIBAMAsEgEAwCwSAQDALBIBAMAsEgEAwCwSAQDALBIBAMAsEgEAwCwSAQDALBIBAMAsEgEAwCwSAQDALBIBAMAsEgEAwCwSAQDALBIBAMAsEgEAwCwSAQDALBIBAMAsEgEAwCwSAQDALBIBAMAsEgEAwCwSAQDALBIBAMAsEgEAwCwSAQDALBIBAMAsEgEAwCwSAQDALBIBAMAsEgEAwCwSAQDALBIBAMAsEgEAwCwSAQDALBIBAMAsEgEAwCwSAQDALBIBAMAsEgEAwCwSAQDALBIBAMAsEgEAwCwSAQDALBIBAMAsEgEAwCwSAQDALBIBAMAsEgEAwCwSAQDALBIBAMAsEgEAwCwSAQDALBIBAMAsEgEAwCwSAQDALBIBAMAsEgEAwCwSAQDALBIBAMAsEgEAwCwSAQDALBIBAMAsEgEAwCwSAQDALBIBAMAsEgEAwCwSAQDALBIBAMAsEgEAwCwSAQDALBIBAMAsEgEAwCwSAQDALBIBAMAsEgEAwCwSAQDALBIBAMAsEgEAwCwSAQDALBIBAMAsEgEAwCwSAQDALBIBAMAsEgEAwCwSAQDALBIBAMAsEgEAwCwSAQDALBIBAMAsEgEAwCwSAQDALBIBAMAsEgEAwCwSAQDALBIBAMAsEgEAwCwSAQDALBIBAMAsEgEAwCwSAQDALBIBAMAsEgEAwCwSAQDALBIBAMAsEgEAwCwSAQDALBIBAMAsEgEAwCwSAQDALBIBAMAsEgEAwCwSAQDALBIBAMAuEAMZsHP6RZAAUAAAAASUVORK5CYII=;imageBorder=default;" vertex="1" parent="1">
          <mxGeometry x="340" y="160" width="120" height="120" as="geometry" />
        </mxCell>
        <mxCell id="i9S4w5KRCm9vi_By6kCF-7" value="" style="shape=image;verticalLabelPosition=bottom;labelBackgroundColor=default;verticalAlign=top;aspect=fixed;imageAspect=0;image=data:image/png,iVBORw0KGgoAAAANSUhEUgAAAyAAAAMgCAAAAAD+G1m0AAAFPklEQVR4nO3TsQ3AIADAsNL/f4YLyAoS9gVZMuYH7PynA+BmBoFgEAgGgWAQCAaBYBAIBoFgEAgGgWAQCAaBYBAIBoFgEAgGgWAQCAaBYBAIBoFgEAgGgWAQCAaBYBAIBoFgEAgGgWAQCAaBYBAIBoFgEAgGgWAQCAaBYBAIBoFgEAgGgWAQCAaBYBAIBoFgEAgGgWAQCAaBYBAIBoFgEAgGgWAQCAaBYBAIBoFgEAgGgWAQCAaBYBAIBoFgEAgGgWAQCAaBYBAIBoFgEAgGgWAQCAaBYBAIBoFgEAgGgWAQCAaBYBAIBoFgEAgGgWAQCAaBYBAIBoFgEAgGgWAQCAaBYBAIBoFgEAgGgWAQCAaBYBAIBoFgEAgGgWAQCAaBYBAIBoFgEAgGgWAQCAaBYBAIBoFgEAgGgWAQCAaBYBAIBoFgEAgGgWAQCAaBYBAIBoFgEAgGgWAQCAaBYBAIBoFgEAgGgWAQCAaBYBAIBoFgEAgGgWAQCAaBYBAIBoFgEAgGgWAQCAaBYBAIBoFgEAgGgWAQCAaBYBAIBoFgEAgGgWAQCAaBYBAIBoFgEAgGgWAQCAaBYBAIBoFgEAgGgWAQCAaBYBAIBoFgEAgGgWAQCAaBYBAIBoFgEAgGgWAQCAaBYBAIBoFgEAgGgWAQCAaBYBAIBoFgEAgGgWAQCAaBYBAIBoFgEAgGgWAQCAaBYBAIBoFgEAgGgWAQCAaBYBAIBoFgEAgGgWAQCAaBYBAIBoFgEAgGgWAQCAaBYBAIBoFgEAgGgWAQCAaBYBAIBoFgEAgGgWAQCAaBYBAIBoFgEAgGgWAQCAaBYBAIBoFgEAgGgWAQCAaBYBAIBoFgEAgGgWAQCAaBYBAIBoFgEAgGgWAQCAaBYBAIBoFgEAgGgWAQCAaBYBAIBoFgEAgGgWAQCAaBYBAIBoFgEAgGgWAQCAaBYBAIBoFgEAgGgWAQCAaBYBAIBoFgEAgGgWAQCAaBYBAIBoFgEAgGgWAQCAaBYBAIBoFgEAgGgWAQCAaBYBAIBoFgEAgGgWAQCAaBYBAIBoFgEAgGgWAQCAaBYBAIBoFgEAgGgWAQCAaBYBAIBoFgEAgGgWAQCAaBYBAIBoFgEAgGgWAQCAaBYBAIBoFgEAgGgWAQCAaBYBAIBoFgEAgGgWAQCAaBYBAIBoFgEAgGgWAQCAaBYBAIBoFgEAgGgWAQCAaBYBAIBoFgEAgGgWAQCAaBYBAIBoFgEAgGgWAQCAaBYBAIBoFgEAgGgWAQCAaBYBAIBoFgEAgGgWAQCAaBYBAIBoFgEAgGgWAQCAaBYBAIBoFgEAgGgWAQCAaBYBAIBoFgEAgGgWAQCAaBYBAIBoFgEAgGgWAQCAaBYBAIBoFgEAAAAAAAAAAAAAAAAAAAAAAAAAAAAAAAAAAAAAAAAAAAAAAAAAAAAAAAAAAAAAAAAAAAAAAAAAAAAAAAAAAAAAAAAAAAAAAAAAAAAAAAAAAAAAAAAAAAAAAAAAAAAAAAAAAAAAAAAAAAAAAAAAAAAAAAAAAAAAAAAAAAAAAAAAAAAAAAAAAAAAAAAAAAAAAAAAAAAAAAAAAAAAAAAAAAAAAAAAAAAAAAAAAAAAAAAAAAAAAAAAAAAAAAAAAAAAAAAAAAAAAAAAAAAAAAAAAAAAAAAAAAAAAAAAAAAAAAAAAAAAAAAAAAAAAAAAAAAAAAAAAAAAAAAAAAAAAAAAAAAAAAAAAAAAAAAAAAAAAAAAAAAAAAAAAAAAAAAAAAAAAAAAAAAAAAAAAAAAAAAAAAAAAAAAAAAADgWQvYowQfAWvtjAAAAABJRU5ErkJggg==;imageBorder=default;" vertex="1" parent="1">
          <mxGeometry x="480" y="160" width="120" height="120" as="geometry" />
        </mxCell>
        <mxCell id="i9S4w5KRCm9vi_By6kCF-8" value="" style="shape=image;verticalLabelPosition=bottom;labelBackgroundColor=default;verticalAlign=top;aspect=fixed;imageAspect=0;image=data:image/png,iVBORw0KGgoAAAANSUhEUgAAAyAAAAMgCAAAAAD+G1m0AAAH8UlEQVR4nO3ToQEAIACAMPX/nzVbqBq2CyjMPfjJfB3AZb0OgJ8ZBIJBIBgEgkEgGASCQSAYBIJBIBgEgkEgGASCQSAYBIJBIBgEgkEgGASCQSAYBIJBIBgEgkEgGASCQSAYBIJBIBgEgkEgGASCQSAYBIJBIBgEgkEgGASCQSAYBIJBIBgEgkEgGASCQSAYBIJBIBgEgkEgGASCQSAYBIJBIBgEgkEgGASCQSAYBIJBIBgEgkEgGASCQSAYBIJBIBgEgkEgGASCQSAYBIJBIBgEgkEgGASCQSAYBIJBIBgEgkEgGASCQSAYBIJBIBgEgkEgGASCQSAYBIJBIBgEgkEgGASCQSAYBIJBIBgEgkEgGASCQSAYBIJBIBgEgkEgGASCQSAYBIJBIBgEgkEgGASCQSAYBIJBIBgEgkEgGASCQSAYBIJBIBgEgkEgGASCQSAYBIJBIBgEgkEgGASCQSAYBIJBIBgEgkEgGASCQSAYBIJBIBgEgkEgGASCQSAYBIJBIBgEgkEgGASCQSAYBIJBIBgEgkEgGASCQSAYBIJBIBgEgkEgGASCQSAYBIJBIBgEgkEgGASCQSAYBIJBIBgEgkEgGASCQSAYBIJBIBgEgkEgGASCQSAYBIJBIBgEgkEgGASCQSAYBIJBIBgEgkEgGASCQSAYBIJBIBgEgkEgGASCQSAYBIJBIBgEgkEgGASCQSAYBIJBIBgEgkEgGASCQSAYBIJBIBgEgkEgGASCQSAYBIJBIBgEgkEgGASCQSAYBIJBIBgEgkEgGASCQSAYBIJBIBgEgkEgGASCQSAYBIJBIBgEgkEgGASCQSAYBIJBIBgEgkEgGASCQSAYBIJBIBgEgkEgGASCQSAYBIJBIBgEgkEgGASCQSAYBIJBIBgEgkEgGASCQSAYBIJBIBgEgkEgGASCQSAYBIJBIBgEgkEgGASCQSAYBIJBIBgEgkEgGASCQSAYBIJBIBgEgkEgGASCQSAYBIJBIBgEgkEgGASCQSAYBIJBIBgEgkEgGASCQSAYBIJBIBgEgkEgGASCQSAYBIJBIBgEgkEgGASCQSAYBIJBIBgEgkEgGASCQSAYBIJBIBgEgkEgGASCQSAYBIJBIBgEgkEgGASCQSAYBIJBIBgEgkEgGASCQSAYBIJBIBgEgkEgGASCQSAYBIJBIBgEgkEgGASCQSAYBIJBIBgEgkEgGASCQSAYBIJBIBgEgkEgGASCQSAYBIJBIBgEgkEgGASCQSAYBIJBIBgEgkEgGASCQSAYBIJBIBgEgkEgGASCQSAYBIJBIBgEgkEgGASCQSAYBIJBIBgEgkEgGASCQSAYBIJBIBgEgkEgGASCQSAYBIJBIBgEgkEgGASCQSAYBIJBIBgEgkEgGASCQSAYBIJBIBgEgkEgGASCQSAYBIJBIBgEgkEgGASCQSAYBIJBIBgEgkEgGASCQSAYBIJBIBgEgkEgGASCQSAYBIJBIBgEgkEgGASCQSAYBIJBIBgEgkEgGASCQSAYBIJBIBgEgkEgGASCQSAYBIJBIBgEgkEgGASCQSAYBIJBIBgEgkEgGASCQSAYBIJBIBgEgkEgGASCQSAYBIJBIBgEgkEgGASCQSAYBIJBIBgEgkEgGASCQSAYBIJBIBgEgkEgGASCQSAYBIJBIBgEgkEgGASCQSAYBIJBIBgEgkEgGASCQSAYBIJBIBgEgkEgGASCQSAYBIJBIBgEgkEgGASCQSAYBIJBIBgEgkEgGASCQSAYBIJBIBgEgkEgGASCQSAYBIJBIBgEgkEgGASCQSAYBIJBIBgEgkEgGASCQSAYBIJBIBgEgkEgGASCQSAYBIJBIBgEgkEgGASCQSAYBIJBIBgEgkEgGASCQSAYBIJBIBgEgkEgGASCQSAYBIJBIBgEgkEgGASCQSAYBIJBIBgEgkEgGASCQSAYBIJBIBgEgkEgGASCQSAYBIJBIBgEgkEgGASCQSAYBIJBIBgEgkEgGASCQSAYBIJBIBgEgkEgGASCQSAYBIJBIBgEgkEgGASCQSAYBIJBIBgEgkEgGASCQSAYBIJBIBgEgkEgGASCQSAYBIJBIBgEgkEgGASCQSAYBIJBIBgEgkEgGASCQSAYBIJBIBgEgkEgGASCQSAYBIJBIBgEgkEgGASCQSAYBIJBIBgEgkEgGASCQSAYBIJBIBgEgkEgGASCQSAYBIJBIBgEgkEgGASCQSAYBIJBIBgEgkEgGASCQSAYBIJBIBgEgkEgGASCQSAYBIJBIBgEgkEgGASCQSAYBIJBIBgEgkEgGASCQSAYBIJBIBgEgkEgGASCQSAYBIJBIBgEgkEgGASCQSAYBIJBIBgEgkEgGASCQSAYBIJBIBgEgkEgGASCQSAYBIJBIBgEgkEgGASCQSAYBIJBIBgEgkEgGASCQSAYBIJBIBgEgkEgGASCQSAYBIJBIBgEgkEgGASCQSAYBIJBIBgEgkEgGASCQSAYBIJBIBgEgkEgGASCQSAYBIJBIBgEgkEgGASCQSAYBIJBIBgEgkEgGASCQSAYBIJBIBgEgkEgGASCQSAYBIJBIBgEgkEgGASCQSAYBIJBIBgEgkEgGASCQSAYBIJBIBgEgkEgGASCQSAYBIJBIBgEgkEgGASCQSAYBIJBIBgEgkEgGASCQSAYBIJBIBgEgkEgGASCQSAYBIJBIBgEgkEgGASCQSAYBIJBIBgEgkEgGASCQSAchj8HQNNQx+cAAAAASUVORK5CYII=;imageBorder=default;" vertex="1" parent="1">
          <mxGeometry x="620" y="160" width="120" height="120" as="geometry" />
        </mxCell>
      </root>
    </mxGraphModel>
  </diagram>
</mxfile>
